<svg width="36" height="36" viewBox="0 0 36 36" fill="none" xmlns="http://www.w3.org/2000/svg">
<circle cx="18" cy="18" r="18" fill="#FFD064"/>
<g clip-path="url(#clip0)">
<path d="M18 11.5938C16.733 11.5938 15.4944 11.9695 14.4409 12.6734C13.3874 13.3773 12.5663 14.3778 12.0814 15.5484C11.5965 16.719 11.4697 18.0071 11.7168 19.2498C11.964 20.4925 12.5742 21.634 13.4701 22.5299C14.366 23.4258 15.5075 24.036 16.7502 24.2832C17.9929 24.5303 19.281 24.4035 20.4516 23.9186C21.6222 23.4337 22.6227 22.6126 23.3266 21.5591C24.0305 20.5056 24.4063 19.267 24.4063 18C24.4044 16.3015 23.7289 14.6731 22.5279 13.4721C21.3269 12.2711 19.6985 11.5956 18 11.5938ZM18 23.8584C16.8411 23.8584 15.7082 23.5148 14.7446 22.8709C13.781 22.227 13.03 21.3118 12.5866 20.2411C12.1431 19.1704 12.0271 17.9922 12.2533 16.8556C12.4794 15.719 13.0376 14.6749 13.8571 13.8555C14.6767 13.0361 15.7208 12.4781 16.8575 12.2522C17.9941 12.0262 19.1723 12.1423 20.2429 12.586C21.3136 13.0296 22.2286 13.7808 22.8724 14.7445C23.5161 15.7081 23.8596 16.8411 23.8594 18C23.8575 19.5533 23.2396 21.0425 22.1411 22.1408C21.0426 23.2391 19.5533 23.8568 18 23.8584Z" fill="white"/>
<path d="M16.5045 10.9551C16.5349 10.9786 16.5698 10.9955 16.6071 11.0046C16.6444 11.0137 16.6833 11.0149 16.721 11.0081C17.5665 10.8523 18.4334 10.8523 19.2788 11.0081C19.3167 11.0149 19.3555 11.0137 19.3929 11.0046C19.4302 10.9954 19.4652 10.9785 19.4956 10.9549C19.5259 10.9313 19.551 10.9016 19.5691 10.8677C19.5872 10.8338 19.598 10.7964 19.6007 10.7581C19.607 10.6668 19.6112 10.5745 19.6112 10.4801C19.6112 9.13854 18.2215 8.09667 18.1624 8.05307C18.1154 8.01829 18.0585 7.99951 17.9999 7.99951C17.9414 7.99951 17.8845 8.01829 17.8374 8.05307C17.7782 8.09667 16.3885 9.13854 16.3885 10.4801C16.3885 10.5746 16.3928 10.6676 16.3993 10.7584C16.402 10.7967 16.4128 10.8341 16.4309 10.868C16.4491 10.9019 16.4741 10.9315 16.5045 10.9551ZM17.9999 8.62714C18.3254 8.91261 19.0287 9.61886 19.0624 10.4193C18.3573 10.3187 17.6414 10.3187 16.9362 10.4193C16.9712 9.61886 17.6745 8.91245 17.9999 8.62714Z" fill="white"/>
<path d="M19.4956 25.0444C19.4652 25.0208 19.4302 25.0038 19.3929 24.9947C19.3555 24.9855 19.3167 24.9843 19.2788 24.9913C18.4334 25.1472 17.5665 25.1472 16.721 24.9913C16.6832 24.9844 16.6444 24.9856 16.607 24.9947C16.5697 25.0039 16.5347 25.0208 16.5043 25.0444C16.474 25.068 16.4489 25.0977 16.4308 25.1316C16.4127 25.1655 16.402 25.2029 16.3993 25.2413C16.3928 25.3327 16.3885 25.4253 16.3885 25.5195C16.3885 26.8611 17.7782 27.903 17.8374 27.9466C17.8845 27.9814 17.9414 28.0002 17.9999 28.0002C18.0585 28.0002 18.1154 27.9814 18.1624 27.9466C18.2215 27.903 19.6112 26.8611 19.6112 25.5195C19.6112 25.4258 19.607 25.3328 19.6007 25.2416C19.5981 25.2031 19.5874 25.1657 19.5692 25.1317C19.5511 25.0977 19.526 25.068 19.4956 25.0444ZM17.9999 27.3722C17.6743 27.0867 16.9712 26.3805 16.9375 25.58C17.6426 25.6806 18.3585 25.6806 19.0637 25.58C19.0287 26.3805 18.3253 27.0869 17.9999 27.3722Z" fill="white"/>
<path d="M22.0393 12.1515C22.748 12.6384 23.3611 13.2514 23.8479 13.9601C23.8698 13.9917 23.898 14.0183 23.9308 14.0383C23.9637 14.0582 24.0003 14.071 24.0384 14.0759C24.0498 14.0773 24.0613 14.078 24.0728 14.0779C24.1386 14.0779 24.2022 14.0542 24.252 14.0112C24.3212 13.9511 24.3897 13.8887 24.4562 13.822C25.405 12.8734 25.1593 11.1539 25.1481 11.0812C25.1394 11.0234 25.1124 10.9698 25.071 10.9284C25.0297 10.8871 24.9761 10.8601 24.9182 10.8514C24.8456 10.8406 23.1262 10.5947 22.1771 11.5434C22.1107 11.61 22.0482 11.6784 21.9882 11.7475C21.9631 11.7765 21.9443 11.8105 21.9331 11.8473C21.922 11.8841 21.9187 11.9228 21.9235 11.9609C21.9284 11.999 21.9412 12.0357 21.9611 12.0686C21.9811 12.1014 22.0077 12.1297 22.0393 12.1515ZM24.6273 11.3722C24.6556 11.8043 24.6531 12.8011 24.1117 13.3912C23.6843 12.8214 23.1781 12.3152 22.6082 11.8878C23.1987 11.3461 24.1953 11.3437 24.6273 11.3722Z" fill="white"/>
<path d="M13.9601 23.8473C13.2516 23.3603 12.6385 22.7473 12.1515 22.0388C12.1297 22.0072 12.1014 21.9805 12.0686 21.9605C12.0357 21.9405 11.9991 21.9277 11.9609 21.9229C11.9228 21.9183 11.8842 21.9217 11.8475 21.9328C11.8108 21.944 11.7768 21.9626 11.7476 21.9876C11.6783 22.0476 11.61 22.1102 11.5433 22.1768C10.5945 23.1255 10.8401 24.8451 10.8514 24.9176C10.86 24.9754 10.887 25.029 10.9284 25.0703C10.9697 25.1117 11.0232 25.1387 11.0811 25.1474C11.2732 25.173 11.4668 25.1852 11.6606 25.184C12.2647 25.184 13.2058 25.0718 13.8217 24.4558C13.8884 24.3893 13.9509 24.3207 14.0111 24.2515C14.0363 24.2224 14.0551 24.1884 14.0663 24.1516C14.0774 24.1149 14.0807 24.0761 14.0759 24.038C14.0711 23.9998 14.0583 23.9631 14.0384 23.9303C14.0184 23.8974 13.9918 23.8691 13.9601 23.8473ZM11.3722 24.6266C11.3439 24.1946 11.3462 23.1977 11.8878 22.6074C12.1015 22.8918 12.3348 23.1609 12.5859 23.4129C12.8377 23.6641 13.1067 23.8973 13.3911 24.111C12.8009 24.6527 11.8042 24.6551 11.3722 24.6266Z" fill="white"/>
<path d="M27.946 17.8374C27.9024 17.7784 26.8605 16.3887 25.5189 16.3887C25.4252 16.3887 25.3322 16.3929 25.241 16.3991C25.2026 16.4018 25.1653 16.4126 25.1314 16.4307C25.0974 16.4488 25.0677 16.4738 25.0441 16.5042C25.0205 16.5345 25.0036 16.5695 24.9945 16.6069C24.9853 16.6442 24.9841 16.683 24.991 16.7209C25.1476 17.5664 25.1476 18.4335 24.991 19.279C24.9841 19.3168 24.9853 19.3556 24.9945 19.393C25.0036 19.4303 25.0205 19.4653 25.0441 19.4956C25.0677 19.526 25.0974 19.551 25.1314 19.5691C25.1653 19.5872 25.2026 19.598 25.241 19.6007C25.3322 19.6069 25.4247 19.6113 25.5189 19.6113C26.8605 19.6113 27.9024 18.2215 27.946 18.1624C27.9807 18.1154 27.9995 18.0584 27.9995 17.9999C27.9995 17.9414 27.9807 17.8845 27.946 17.8374ZM25.5797 19.0629C25.6805 18.3577 25.6805 17.6418 25.5797 16.9366C26.3802 16.971 27.0866 17.6744 27.3719 17.9991C27.0864 18.3254 26.3802 19.0287 25.5797 19.0629Z" fill="white"/>
<path d="M10.9552 19.4955C10.9789 19.4652 10.9958 19.4302 11.005 19.3928C11.0141 19.3555 11.0153 19.3166 11.0084 19.2788C10.8517 18.4335 10.8517 17.5665 11.0084 16.7212C11.0152 16.6833 11.0141 16.6445 11.0049 16.6071C10.9958 16.5697 10.9789 16.5347 10.9553 16.5043C10.9317 16.474 10.9019 16.4489 10.868 16.4308C10.8341 16.4126 10.7967 16.4019 10.7584 16.3991C10.6671 16.3927 10.5746 16.3887 10.4804 16.3887C9.13883 16.3887 8.09695 17.7784 8.0532 17.8374C8.01849 17.8845 7.99976 17.9414 7.99976 17.9999C7.99976 18.0584 8.01849 18.1153 8.0532 18.1624C8.09695 18.2215 9.13883 19.6113 10.4804 19.6113C10.5741 19.6113 10.6679 19.6071 10.7584 19.6007C10.7967 19.598 10.8341 19.5873 10.868 19.5692C10.902 19.551 10.9317 19.5259 10.9552 19.4955ZM10.4196 19.0629C9.61914 19.0285 8.91274 18.3251 8.62742 18.0004C8.91289 17.6749 9.61914 16.9716 10.4196 16.9379C10.3188 17.643 10.3188 18.359 10.4196 19.0641V19.0629Z" fill="white"/>
<path d="M24.252 21.9876C24.2228 21.9626 24.1888 21.9439 24.152 21.9328C24.1152 21.9216 24.0765 21.9183 24.0384 21.9229C24.0003 21.9278 23.9636 21.9406 23.9308 21.9606C23.898 21.9806 23.8697 22.0072 23.8479 22.0389C23.361 22.7475 22.748 23.3605 22.0393 23.8473C22.0077 23.8692 21.9811 23.8974 21.9611 23.9303C21.9412 23.9631 21.9284 23.9998 21.9235 24.0379C21.9187 24.076 21.922 24.1148 21.9331 24.1515C21.9443 24.1883 21.9631 24.2223 21.9882 24.2514C22.0484 24.3206 22.1109 24.3892 22.1775 24.4556C22.7937 25.0718 23.7348 25.184 24.3389 25.1839C24.5326 25.1851 24.7262 25.1729 24.9182 25.1475C24.9761 25.1388 25.0297 25.1118 25.071 25.0704C25.1124 25.029 25.1394 24.9755 25.1481 24.9176C25.159 24.8451 25.405 23.1256 24.4562 22.1768C24.3896 22.1103 24.3212 22.0478 24.252 21.9876ZM24.627 24.6267C24.195 24.6546 23.1981 24.6526 22.6079 24.111C23.1779 23.6838 23.6841 23.1776 24.1114 22.6076C24.6532 23.1981 24.6562 24.1946 24.6273 24.6267H24.627Z" fill="white"/>
<path d="M11.7482 14.0115C11.798 14.0545 11.8615 14.0782 11.9273 14.0782C11.9387 14.0782 11.9502 14.0775 11.9615 14.0762C11.9996 14.0713 12.0363 14.0585 12.0691 14.0386C12.102 14.0186 12.1303 13.992 12.1521 13.9604C12.6391 13.2518 13.2521 12.6387 13.9607 12.1518C13.9924 12.1299 14.019 12.1016 14.039 12.0688C14.0589 12.0359 14.0717 11.9992 14.0765 11.9611C14.0813 11.9229 14.078 11.8842 14.0669 11.8474C14.0557 11.8106 14.0369 11.7766 14.0117 11.7476C13.9517 11.6785 13.8892 11.6101 13.8224 11.5435C12.8739 10.5948 11.1543 10.8404 11.0817 10.8516C11.0238 10.8603 10.9703 10.8873 10.929 10.9287C10.8876 10.9701 10.8606 11.0236 10.852 11.0815C10.841 11.1541 10.5951 12.8737 11.5439 13.8224C11.6106 13.889 11.6789 13.9515 11.7482 14.0115ZM11.3732 11.3724C11.8049 11.3437 12.8018 11.3463 13.3923 11.888C13.1079 12.1017 12.8389 12.335 12.5871 12.5863C12.3358 12.838 12.1023 13.1068 11.8884 13.3908C11.3468 12.8012 11.3439 11.8044 11.3728 11.3724H11.3732Z" fill="white"/>
</g>
<defs>
<clipPath id="clip0">
<rect width="20" height="20" fill="white" transform="translate(8 8)"/>
</clipPath>
</defs>
</svg>
