<svg width="42" height="42" viewBox="0 0 42 42" fill="none" xmlns="http://www.w3.org/2000/svg">
<path d="M31.92 0H10.08C4.51297 0 0 4.51297 0 10.08V31.92C0 37.487 4.51297 42 10.08 42H31.92C37.487 42 42 37.487 42 31.92V10.08C42 4.51297 37.487 0 31.92 0Z" fill="url(#paint0_linear)"/>
<path d="M24.7179 16.0699C24.6384 15.1949 24.2844 14.5148 23.656 14.0296C23.0355 13.5364 22.1486 13.2898 20.9952 13.2898C20.2316 13.2898 19.5952 13.3892 19.0861 13.5881C18.577 13.787 18.1952 14.0614 17.9406 14.4114C17.6861 14.7534 17.5548 15.1472 17.5469 15.5926C17.531 15.9585 17.6026 16.2807 17.7617 16.5591C17.9287 16.8375 18.1673 17.0841 18.4776 17.2989C18.7958 17.5057 19.1776 17.6886 19.623 17.8477C20.0685 18.0068 20.5696 18.146 21.1264 18.2653L23.2264 18.7426C24.4355 19.0051 25.5014 19.3551 26.4242 19.7926C27.3548 20.2301 28.1344 20.7512 28.7628 21.3557C29.3992 21.9603 29.8804 22.6563 30.2066 23.4438C30.5327 24.2313 30.6997 25.1142 30.7077 26.0926C30.6997 27.6358 30.31 28.9603 29.5383 30.0659C28.7668 31.1716 27.6571 32.0188 26.2094 32.6074C24.7696 33.1961 23.0315 33.4904 20.9952 33.4904C18.9509 33.4904 17.169 33.1841 15.6497 32.5716C14.1304 31.9591 12.9491 31.0284 12.106 29.7796C11.2628 28.5307 10.8293 26.9517 10.8054 25.0426H16.4611C16.5088 25.8301 16.7196 26.4864 17.0935 27.0114C17.4673 27.5364 17.9804 27.9341 18.6327 28.2046C19.2929 28.475 20.0566 28.6102 20.9236 28.6102C21.719 28.6102 22.3952 28.5028 22.952 28.2881C23.5168 28.0733 23.9503 27.775 24.2526 27.3932C24.5548 27.0114 24.7099 26.5739 24.7179 26.0807C24.7099 25.6193 24.5668 25.2256 24.2883 24.8995C24.01 24.5653 23.5804 24.279 22.9997 24.0403C22.427 23.7938 21.6952 23.5671 20.8043 23.3602L18.2508 22.7637C16.135 22.2784 14.4685 21.4949 13.2514 20.4131C12.0344 19.3233 11.4298 17.8517 11.4378 15.9983C11.4298 14.4869 11.8355 13.1625 12.6548 12.025C13.4741 10.8875 14.6077 10.0006 16.0554 9.36424C17.5031 8.72786 19.1537 8.40967 21.0071 8.40967C22.9003 8.40967 24.5429 8.73185 25.935 9.37617C27.3349 10.0125 28.4208 10.9074 29.1923 12.0608C29.9639 13.2142 30.3577 14.5506 30.3736 16.0699H24.7179Z" fill="black"/>
<defs>
<linearGradient id="paint0_linear" x1="7.45267e-07" y1="42" x2="50.014" y2="27.7451" gradientUnits="userSpaceOnUse">
<stop stop-color="#895ED3"/>
<stop offset="0.338254" stop-color="#BE6EAB" stop-opacity="0.567708"/>
<stop offset="1" stop-color="#F17E84"/>
</linearGradient>
</defs>
</svg>
