<svg width="155" height="36" viewBox="0 0 155 36" fill="none" xmlns="http://www.w3.org/2000/svg">
<g clip-path="url(#clip0)">
<path d="M26.19 2.25H9.81C5.63473 2.25 2.25 5.63473 2.25 9.81V26.19C2.25 30.3653 5.63473 33.75 9.81 33.75H26.19C30.3653 33.75 33.75 30.3653 33.75 26.19V9.81C33.75 5.63473 30.3653 2.25 26.19 2.25Z" fill="white"/>
<path d="M20.7884 14.3023C20.7287 13.646 20.4632 13.136 19.9919 12.772C19.5266 12.4022 18.8614 12.2172 17.9963 12.2172C17.4236 12.2172 16.9463 12.2918 16.5645 12.441C16.1827 12.5901 15.8963 12.7959 15.7054 13.0584C15.5145 13.315 15.4161 13.6103 15.4101 13.9444C15.3982 14.2188 15.4519 14.4604 15.5712 14.6692C15.6965 14.878 15.8755 15.063 16.1081 15.224C16.3468 15.3791 16.6331 15.5164 16.9672 15.6357C17.3013 15.755 17.6772 15.8594 18.0948 15.9489L19.6698 16.3069C20.5766 16.5037 21.376 16.7662 22.0681 17.0944C22.7661 17.4225 23.3507 17.8132 23.8221 18.2667C24.2993 18.7201 24.6602 19.2421 24.9049 19.8327C25.1495 20.4233 25.2747 21.0856 25.2807 21.8194C25.2747 22.9767 24.9824 23.9701 24.4037 24.7993C23.825 25.6286 22.9928 26.2639 21.907 26.7054C20.8272 27.1469 19.5236 27.3676 17.9963 27.3676C16.4631 27.3676 15.1267 27.138 13.9872 26.6786C12.8477 26.2192 11.9618 25.5212 11.3294 24.5846C10.697 23.6479 10.3719 22.4637 10.354 21.0319H14.5958C14.6315 21.6225 14.7896 22.1147 15.0701 22.5084C15.3504 22.9022 15.7352 23.2005 16.2244 23.4033C16.7196 23.6061 17.2924 23.7076 17.9426 23.7076C18.5392 23.7076 19.0463 23.627 19.4639 23.466C19.8875 23.3049 20.2127 23.0812 20.4394 22.7948C20.6661 22.5084 20.7824 22.1803 20.7884 21.8104C20.7824 21.4644 20.675 21.1691 20.4662 20.9245C20.2574 20.6739 19.9352 20.4591 19.4997 20.2801C19.0702 20.0952 18.5213 19.9252 17.8531 19.7701L15.9381 19.3226C14.3512 18.9587 13.1013 18.371 12.1885 17.5597C11.2757 16.7424 10.8223 15.6387 10.8283 14.2486C10.8223 13.1151 11.1266 12.1218 11.7411 11.2686C12.3555 10.4155 13.2057 9.75032 14.2915 9.27306C15.3773 8.79577 16.6152 8.55713 18.0053 8.55713C19.4252 8.55713 20.6571 8.79877 21.7012 9.28201C22.7511 9.75926 23.5655 10.4304 24.1442 11.2955C24.7229 12.1605 25.0182 13.1628 25.0301 14.3023H20.7884Z" fill="url(#paint0_linear)"/>
</g>
<path d="M51.068 22.806C49.916 22.806 48.962 22.518 48.206 21.942C47.45 21.366 47.048 20.634 47 19.746H49.574C49.622 20.13 49.79 20.424 50.078 20.628C50.366 20.82 50.72 20.916 51.14 20.916C51.92 20.916 52.31 20.676 52.31 20.196C52.31 19.956 52.22 19.776 52.04 19.656C51.872 19.524 51.584 19.404 51.176 19.296L49.484 18.864C48.716 18.66 48.14 18.318 47.756 17.838C47.384 17.346 47.198 16.758 47.198 16.074C47.198 15.294 47.522 14.658 48.17 14.166C48.83 13.662 49.712 13.41 50.816 13.41C51.824 13.41 52.664 13.668 53.336 14.184C54.008 14.688 54.38 15.378 54.452 16.254H51.968C51.86 15.642 51.464 15.336 50.78 15.336C50.456 15.336 50.198 15.396 50.006 15.516C49.814 15.636 49.718 15.804 49.718 16.02C49.718 16.416 50.06 16.692 50.744 16.848L52.328 17.28C53.204 17.496 53.84 17.838 54.236 18.306C54.632 18.762 54.83 19.35 54.83 20.07C54.83 20.898 54.476 21.564 53.768 22.068C53.072 22.56 52.172 22.806 51.068 22.806Z" fill="white"/>
<path d="M64.0996 21.456C63.1756 22.356 62.0596 22.806 60.7516 22.806C59.4436 22.806 58.3276 22.356 57.4036 21.456C56.4796 20.544 56.0176 19.428 56.0176 18.108C56.0176 16.8 56.4796 15.69 57.4036 14.778C58.3276 13.866 59.4436 13.41 60.7516 13.41C62.0596 13.41 63.1756 13.866 64.0996 14.778C65.0236 15.69 65.4856 16.8 65.4856 18.108C65.4856 19.428 65.0236 20.544 64.0996 21.456ZM60.7516 20.502C61.3876 20.502 61.9156 20.28 62.3356 19.836C62.7676 19.38 62.9836 18.804 62.9836 18.108C62.9836 17.412 62.7676 16.842 62.3356 16.398C61.9156 15.942 61.3876 15.714 60.7516 15.714C60.1036 15.714 59.5636 15.942 59.1316 16.398C58.7116 16.842 58.5016 17.412 58.5016 18.108C58.5016 18.804 58.7116 19.38 59.1316 19.836C59.5636 20.28 60.1036 20.502 60.7516 20.502Z" fill="white"/>
<path d="M71.4266 22.716C70.4186 22.716 69.5906 22.44 68.9426 21.888C68.3066 21.324 67.9886 20.514 67.9886 19.458V15.768H66.1706V13.608H67.9886V11.106H70.4546V13.608H72.9926V15.768H70.4546V18.972C70.4546 19.524 70.5746 19.92 70.8146 20.16C71.0546 20.388 71.4446 20.502 71.9846 20.502C72.3686 20.502 72.7046 20.448 72.9926 20.34V22.518C72.5606 22.65 72.0386 22.716 71.4266 22.716Z" fill="white"/>
<path d="M78.2832 22.806C77.0952 22.806 76.0932 22.344 75.2772 21.42C74.4612 20.496 74.0532 19.392 74.0532 18.108C74.0532 16.824 74.4612 15.72 75.2772 14.796C76.0932 13.872 77.0952 13.41 78.2832 13.41C78.8592 13.41 79.3752 13.53 79.8312 13.77C80.2872 14.01 80.6352 14.292 80.8752 14.616V13.608H83.3412V22.608H80.8752V21.6C80.6352 21.924 80.2872 22.206 79.8312 22.446C79.3752 22.686 78.8592 22.806 78.2832 22.806ZM77.1492 19.872C77.5692 20.328 78.1212 20.556 78.8052 20.556C79.4892 20.556 80.0352 20.328 80.4432 19.872C80.8632 19.416 81.0732 18.828 81.0732 18.108C81.0732 17.388 80.8632 16.8 80.4432 16.344C80.0352 15.888 79.4892 15.66 78.8052 15.66C78.1212 15.66 77.5692 15.888 77.1492 16.344C76.7412 16.8 76.5372 17.388 76.5372 18.108C76.5372 18.828 76.7412 19.416 77.1492 19.872Z" fill="white"/>
<path d="M87.0525 22.752C86.5485 22.752 86.1225 22.578 85.7745 22.23C85.4265 21.882 85.2525 21.456 85.2525 20.952C85.2525 20.448 85.4265 20.022 85.7745 19.674C86.1225 19.326 86.5485 19.152 87.0525 19.152C87.5445 19.152 87.9645 19.332 88.3125 19.692C88.6725 20.04 88.8525 20.46 88.8525 20.952C88.8525 21.444 88.6725 21.87 88.3125 22.23C87.9645 22.578 87.5445 22.752 87.0525 22.752Z" fill="white"/>
<path d="M91.2628 22.608V15.768H89.4448V13.608H91.2628V12.438C91.2628 11.37 91.5868 10.53 92.2348 9.918C92.8828 9.306 93.7048 9 94.7008 9C95.3128 9 95.8348 9.066 96.2668 9.198V11.376C95.9788 11.268 95.6428 11.214 95.2588 11.214C94.7188 11.214 94.3288 11.334 94.0888 11.574C93.8488 11.802 93.7288 12.192 93.7288 12.744V13.608H96.2668V15.768H93.7288V22.608H91.2628Z" fill="white"/>
<path d="M98.9508 12.132C98.5308 12.132 98.1648 11.982 97.8528 11.682C97.5408 11.37 97.3848 10.998 97.3848 10.566C97.3848 10.134 97.5408 9.768 97.8528 9.468C98.1648 9.156 98.5308 9 98.9508 9C99.3948 9 99.7668 9.156 100.067 9.468C100.379 9.768 100.535 10.134 100.535 10.566C100.535 10.998 100.379 11.37 100.067 11.682C99.7668 11.982 99.3948 12.132 98.9508 12.132ZM97.7268 22.608V13.608H100.193V22.608H97.7268Z" fill="white"/>
<path d="M102.561 22.608V13.608H105.027V14.634C105.579 13.818 106.437 13.41 107.601 13.41C108.681 13.41 109.527 13.77 110.139 14.49C110.763 15.198 111.075 16.146 111.075 17.334V22.608H108.609V17.748C108.609 17.088 108.471 16.578 108.195 16.218C107.919 15.846 107.529 15.66 107.025 15.66C106.425 15.66 105.939 15.876 105.567 16.308C105.207 16.74 105.027 17.376 105.027 18.216V22.608H102.561Z" fill="white"/>
<path d="M116.99 22.806C115.802 22.806 114.8 22.344 113.984 21.42C113.168 20.496 112.76 19.392 112.76 18.108C112.76 16.824 113.168 15.72 113.984 14.796C114.8 13.872 115.802 13.41 116.99 13.41C117.566 13.41 118.082 13.53 118.538 13.77C118.994 14.01 119.342 14.292 119.582 14.616V13.608H122.048V22.608H119.582V21.6C119.342 21.924 118.994 22.206 118.538 22.446C118.082 22.686 117.566 22.806 116.99 22.806ZM115.856 19.872C116.276 20.328 116.828 20.556 117.512 20.556C118.196 20.556 118.742 20.328 119.15 19.872C119.57 19.416 119.78 18.828 119.78 18.108C119.78 17.388 119.57 16.8 119.15 16.344C118.742 15.888 118.196 15.66 117.512 15.66C116.828 15.66 116.276 15.888 115.856 16.344C115.448 16.8 115.244 17.388 115.244 18.108C115.244 18.828 115.448 19.416 115.856 19.872Z" fill="white"/>
<path d="M124.446 22.608V13.608H126.912V14.634C127.464 13.818 128.322 13.41 129.486 13.41C130.566 13.41 131.412 13.77 132.024 14.49C132.648 15.198 132.96 16.146 132.96 17.334V22.608H130.494V17.748C130.494 17.088 130.356 16.578 130.08 16.218C129.804 15.846 129.414 15.66 128.91 15.66C128.31 15.66 127.824 15.876 127.452 16.308C127.092 16.74 126.912 17.376 126.912 18.216V22.608H124.446Z" fill="white"/>
<path d="M139.379 22.806C138.023 22.806 136.895 22.356 135.995 21.456C135.095 20.544 134.645 19.428 134.645 18.108C134.645 16.788 135.095 15.678 135.995 14.778C136.895 13.866 138.023 13.41 139.379 13.41C140.579 13.41 141.581 13.746 142.385 14.418C143.201 15.09 143.735 15.966 143.987 17.046H141.431C141.035 16.11 140.351 15.642 139.379 15.642C138.719 15.642 138.179 15.87 137.759 16.326C137.339 16.77 137.129 17.364 137.129 18.108C137.129 18.852 137.339 19.452 137.759 19.908C138.179 20.352 138.719 20.574 139.379 20.574C140.351 20.574 141.035 20.106 141.431 19.17H143.987C143.735 20.25 143.201 21.126 142.385 21.798C141.581 22.47 140.579 22.806 139.379 22.806Z" fill="white"/>
<path d="M149.802 22.806C148.422 22.806 147.288 22.362 146.4 21.474C145.524 20.586 145.086 19.458 145.086 18.09C145.086 16.746 145.53 15.63 146.418 14.742C147.318 13.854 148.452 13.41 149.82 13.41C151.2 13.41 152.346 13.884 153.258 14.832C154.17 15.768 154.59 17.052 154.518 18.684H147.498C147.546 19.248 147.78 19.722 148.2 20.106C148.62 20.478 149.196 20.664 149.928 20.664C150.372 20.664 150.762 20.58 151.098 20.412C151.446 20.232 151.692 19.986 151.836 19.674H154.41C154.146 20.598 153.594 21.354 152.754 21.942C151.914 22.518 150.93 22.806 149.802 22.806ZM149.748 15.408C149.184 15.408 148.71 15.558 148.326 15.858C147.954 16.146 147.708 16.548 147.588 17.064H151.818C151.686 16.5 151.422 16.086 151.026 15.822C150.642 15.546 150.216 15.408 149.748 15.408Z" fill="white"/>
<defs>
<linearGradient id="paint0_linear" x1="10.354" y1="27.3676" x2="28.6376" y2="23.2325" gradientUnits="userSpaceOnUse">
<stop stop-color="#895ED3"/>
<stop offset="0.338254" stop-color="#BE6EAB" stop-opacity="0.567708"/>
<stop offset="1" stop-color="#F17E84"/>
</linearGradient>
<clipPath id="clip0">
<rect width="31.5" height="31.5" fill="white" transform="translate(2.25 2.25)"/>
</clipPath>
</defs>
</svg>
